<?xml version="1.0" encoding="utf-8"?>
<svg version="1.1" xmlns:xlink="http://www.w3.org/1999/xlink" width="128px" height="112px" xmlns="http://www.w3.org/2000/svg">
  <g transform="matrix(1 0 0 1 -1685 -876 )">
    <path d="M 4 64  C 4 80.0613771532298  10.0324111323159 94.4775512703741  20 105.15135990374  L 19.9999612439265 110.475773737152  C 7.24088964833595 98.3968184184291  0 81.5922828217613  0 64  C 0 28.653776010829  28.6537760108292 0  64 0  C 99.3462239891708 0  128 28.653776010829  128 64  C 128 82.0599045622489  120.369958144406 99.2744319995786  107 111.402392420011  L 106.999998400961 106.19612333343  C 117.562738459131 95.4275543552048  124 80.5915855695389  124 64  C 124 30.4000000000001  97.5999999999999 4  64 4  C 30.4000000000001 4  4 30.4000000000001  4 64  Z " fill-rule="nonzero" fill="#fcce23" stroke="none" transform="matrix(1 0 0 1 1685 876 )" />
  </g>
</svg>