<?xml version="1.0" encoding="UTF-8"?>
<!DOCTYPE svg PUBLIC "-//W3C//DTD SVG 1.1//EN" "http://www.w3.org/Graphics/SVG/1.1/DTD/svg11.dtd">
<!-- Creator: CorelDRAW 2019 (64-Bit) -->
<svg xmlns="http://www.w3.org/2000/svg" xml:space="preserve" width="44.6237mm" height="34.2854mm" version="1.1" style="shape-rendering:geometricPrecision; text-rendering:geometricPrecision; image-rendering:optimizeQuality; fill-rule:evenodd; clip-rule:evenodd"
viewBox="0 0 441.72 339.39"
 xmlns:xlink="http://www.w3.org/1999/xlink">
 <defs>
  <style type="text/css">
   <![CDATA[
    .fil1 {fill:#E95A6F}
    .fil0 {fill:#595C6A}
   ]]>
  </style>
 </defs>
 <g id="图层_x0020_1">
  <metadata id="CorelCorpID_0Corel-Layer"/>
  <path class="fil0" d="M84.77 0l135.42 0c76.84,0 88.48,111.82 0,118.68l-33.76 0.13c-51.23,1.16 -66.36,26.78 -66.4,67.52 0,47.99 -1.22,42.76 -1.22,90.76 0,76.84 -111.82,88.48 -118.68,0 -0.31,-81.92 0.02,-110.47 0.02,-192.47 2.85,-40.32 14.49,-77.57 84.62,-84.62z"/>
  <circle class="fil1" cx="377.15" cy="65.87" r="64.58"/>
  <path class="fil0" d="M377.15 160.17c35.66,0 64.58,28.91 64.58,64.58 0,43.67 0,6.42 0,50.06 0,2.85 -0.19,5.66 -0.55,8.41l0 2.61 -0.4 0c-5.23,30.41 -31.73,53.55 -63.64,53.55 -31.91,0 -58.4,-23.14 -63.63,-53.55l-0.4 0 0 -2.6c-0.36,-2.76 -0.55,-5.57 -0.55,-8.42 0,-43.64 0,-6.39 0,-50.06 0,-35.67 28.91,-64.58 64.58,-64.58z"/>
 </g>
</svg>
