<?xml version="1.0" encoding="utf-8"?>
<svg version="1.1" xmlns:xlink="http://www.w3.org/1999/xlink" width="140px" height="140px" xmlns="http://www.w3.org/2000/svg">
  <defs>
    <mask fill="white" id="clip3667">
      <path d="M 0.00352676269756103 69.2973376773984  L 7.00297225550151 69.3676016379479  C 7.0009921908719 69.5781276163787  7 69.7889285094341  7 70  C 7 105.28  34.72 133  70 133  C 105.28 133  133 105.28  133 70  C 133 34.72  105.28 7  70 6.99996746359921  L 70 0  C 108.659932488156 0  140 31.3400675118444  140 70  C 140 108.659932488156  108.659932488156 140  70 140  C 31.3400675118445 140  0 108.659932488156  0 70  C 0 69.7657748004867  0.00117560237322323 69.5315510761016  0.00352676269756103 69.2973376773984  Z " fill-rule="evenodd" />
    </mask>
  </defs>
  <g transform="matrix(1 0 0 1 -672 -599 )">
    <path d="M 0.00352676269756103 69.2973376773984  L 7.00297225550151 69.3676016379479  C 7.0009921908719 69.5781276163787  7 69.7889285094341  7 70  C 7 105.28  34.72 133  70 133  C 105.28 133  133 105.28  133 70  C 133 34.72  105.28 7  70 6.99996746359921  L 70 0  C 108.659932488156 0  140 31.3400675118444  140 70  C 140 108.659932488156  108.659932488156 140  70 140  C 31.3400675118445 140  0 108.659932488156  0 70  C 0 69.7657748004867  0.00117560237322323 69.5315510761016  0.00352676269756103 69.2973376773984  Z " fill-rule="nonzero" fill="#18f8fe" stroke="none" transform="matrix(1 0 0 1 672 599 )" />
    <path d="M 0.00352676269756103 69.2973376773984  L 7.00297225550151 69.3676016379479  C 7.0009921908719 69.5781276163787  7 69.7889285094341  7 70  C 7 105.28  34.72 133  70 133  C 105.28 133  133 105.28  133 70  C 133 34.72  105.28 7  70 6.99996746359921  L 70 0  C 108.659932488156 0  140 31.3400675118444  140 70  C 140 108.659932488156  108.659932488156 140  70 140  C 31.3400675118445 140  0 108.659932488156  0 70  C 0 69.7657748004867  0.00117560237322323 69.5315510761016  0.00352676269756103 69.2973376773984  Z " stroke-width="2" stroke="#18f8fe" fill="none" transform="matrix(1 0 0 1 672 599 )" mask="url(#clip3667)" />
  </g>
</svg>