<?xml version="1.0" encoding="UTF-8"?>
<svg width="64px" height="63px" viewBox="0 0 64 63" version="1.1" xmlns="http://www.w3.org/2000/svg" xmlns:xlink="http://www.w3.org/1999/xlink">
    <title>tiandtech</title>
    <g id="页面-1" stroke="none" stroke-width="1" fill="none" fill-rule="evenodd">
        <g id="矩形-2" fill="#FFFFFF" stroke="#FFFFFF">
            <rect id="矩形" x="0.5" y="0.5" width="63" height="62" rx="8"></rect>
        </g>
        <g id="favicon" transform="translate(10.999719, 16.000000)">
            <path d="M7.98823693,0 L20.7490203,0 C27.9897425,0 29.0865932,10.5369281 20.7490203,11.1833538 L17.5677764,11.1956039 C12.7403142,11.304912 11.3145968,13.7191143 11.3108276,17.5580916 C11.3108276,22.0802449 11.1958655,21.5874159 11.1958655,26.1105115 C11.1958655,33.3512337 0.658937485,34.4480843 0.0125117425,26.1105115 C-0.0166999164,18.3910951 0.0143963657,15.7007955 0.0143963657,7.97384057 C0.282955165,4.17444029 1.37980584,0.664329662 7.98823693,0 Z" id="路径" fill="#595C6A"></path>
            <circle id="椭圆形" fill="#E95A6F" cx="35.5395428" cy="6.20700636" r="6.08544817"></circle>
            <path d="M35.5395428,15.0930045 C38.8998259,15.0930045 41.624991,17.8172273 41.624991,21.1784527 C41.624991,25.2935274 41.624991,21.7834167 41.624991,25.8956645 C41.624991,26.1642233 41.6070871,26.4290128 41.5731639,26.6881485 L41.5731639,26.9340918 L41.5354714,26.9340918 C41.0426424,29.7996613 38.5455168,31.9801703 35.5386005,31.9801703 C32.5316843,31.9801703 30.0355009,29.7996613 29.542672,26.9340918 L29.5049795,26.9340918 L29.5049795,26.6890908 C29.4710563,26.4290128 29.4531524,26.1642233 29.4531524,25.8956645 C29.4531524,21.7834167 29.4531524,25.2935274 29.4531524,21.1784527 C29.4531524,17.8172273 32.1773751,15.0930045 35.5386005,15.0930045 L35.5395428,15.0930045 Z" id="路径" fill="#595C6A"></path>
        </g>
    </g>
</svg>
